<?xml version="1.0" encoding="utf-8"?>
<svg xmlns="http://www.w3.org/2000/svg" xmlns:xlink="http://www.w3.org/1999/xlink" style="margin: auto; background: rgb(0, 0, 0); display: block; z-index: 1; position: relative; shape-rendering: auto;" width="1131" height="1058" preserveAspectRatio="xMidYMid" viewBox="0 0 1131 1058">
<g transform="translate(565.5,529) scale(1,-1) translate(-565.5,-529)"><g transform="translate(601.0255685173632,-601.4419197736424) scale(100)" opacity="0.4">
  <path d="M10.9707 0 C10.9707 1.3572 10.767189736306062 4.649280321983759 10.088589736306062 5.824649999999999 S6.660719678016241 8.822304897297942 5.485350000000001 9.500904897297941 S1.3572000000000006 11.6493 7.133138978653631e-16 11.6493 S-4.309980321983757 10.179504897297942 -5.485349999999998 9.500904897297943 S-9.409989736306057 7.000019678016244 -10.088589736306059 5.824650000000004 S-10.9707 1.3572000000000013 -10.9707 1.3435232639405868e-15 S-10.767189736306063 -4.649280321983756 -10.088589736306064 -5.8246499999999966 S-6.660719678016244 -8.822304897297938 -5.485350000000005 -9.50090489729794 S-1.3572000000000022 -11.6493 -2.139941693596089e-15 -11.6493 S4.309980321983753 -10.179504897297946 5.485349999999993 -9.500904897297946 S9.409989736306057 -7.000019678016245 10.088589736306059 -5.824650000000005 S10.9707 -1.3572000000000026 10.9707 -2.6870465278811736e-15" fill="#3c0f0f" stroke-width="0">
    <animateTransform attributeName="transform" type="rotate" dur="10s" repeatCount="indefinite" values="0;60"></animateTransform>
  </path>
</g><g transform="translate(608.1306822208359,-827.5303037283709) scale(100)" opacity="0.4">
  <path d="M13.16484 0 C13.16484 1.62864 12.920627683567277 5.579136386380512 12.106307683567277 6.98958 S7.99286361361949 10.586765876757529 6.582420000000002 11.401085876757529 S1.628640000000001 13.979160000000002 8.559766774384358e-16 13.979160000000002 S-5.171976386380509 12.215405876757531 -6.582419999999997 11.40108587675753 S-11.291987683567273 8.400023613619494 -12.106307683567273 6.9895800000000055 S-13.16484 1.6286400000000016 -13.16484 1.6122279167287042e-15 S-12.920627683567277 -5.579136386380509 -12.106307683567277 -6.9895799999999975 S-7.992863613619495 -10.586765876757527 -6.582420000000006 -11.401085876757527 S-1.6286400000000028 -13.979160000000002 -2.5679300323153074e-15 -13.979160000000002 S5.171976386380502 -12.215405876757533 6.582419999999991 -11.401085876757534 S11.291987683567271 -8.400023613619496 12.106307683567271 -6.989580000000007 S13.16484 -1.6286400000000034 13.16484 -3.2244558334574084e-15" fill="#98121a" stroke-width="0">
    <animateTransform attributeName="transform" type="rotate" dur="5s" repeatCount="indefinite" values="0;60"></animateTransform>
  </path>
</g><g transform="translate(625.1829551091702,-1370.1424252197191) scale(100)" opacity="0.4">
  <path d="M18.430775999999998 0 C18.430775999999998 2.280096 18.088878756994184 7.810790940932714 16.948830756994184 9.785411999999997 S11.190009059067284 14.821472227460537 9.215388 15.961520227460538 S2.2800960000000012 19.570823999999998 1.1983673484138098e-15 19.570823999999998 S-7.240766940932712 17.10156822746054 -9.215387999999995 15.961520227460541 S-15.808782756994177 11.76003305906729 -16.948830756994177 9.785412000000006 S-18.430775999999998 2.280096000000002 -18.430775999999998 2.2571190834201854e-15 S-18.088878756994184 -7.81079094093271 -16.948830756994184 -9.785411999999994 S-11.190009059067291 -14.821472227460536 -9.215388000000008 -15.961520227460536 S-2.2800960000000035 -19.570823999999998 -3.595102045241429e-15 -19.570823999999998 S7.240766940932702 -17.101568227460547 9.215387999999987 -15.961520227460547 S15.808782756994177 -11.760033059067291 16.948830756994177 -9.785412000000008 S18.430775999999998 -2.2800960000000043 18.430775999999998 -4.514238166840371e-15" fill="#f91a10" stroke-width="0">
    <animateTransform attributeName="transform" type="rotate" dur="3.3333333333333335s" repeatCount="indefinite" values="0;60"></animateTransform>
  </path>
</g></g>
</svg>