<?xml version="1.0" encoding="utf-8"?>
<svg xmlns="http://www.w3.org/2000/svg" xmlns:xlink="http://www.w3.org/1999/xlink" style="margin: auto; background: rgb(197, 32, 32); display: block; z-index: 1; position: relative; shape-rendering: auto;" width="2509" height="953" preserveAspectRatio="xMidYMid" viewBox="0 0 2509 953">
<g transform="translate(1254.5,476.5) scale(1,-1) translate(-1254.5,-476.5)"><g transform="translate(1101.0234572245008,-1147.1122299729332) scale(100)" opacity="0.4">
  <path d="M16.063872500000002 0 C16.063872500000002 4.403295000000001 16.824370642957053 3.214901142599295 14.913852543919404 7.182132853789678 S13.458295339703024 9.813831723776865 10.01566068210896 12.559241250852418 S7.976312592268616 15.15828071776936 3.683417391197953 16.13810603365453 S0.7183472894155094 16.640942993865185 -3.5745479116551544 15.661117677980014 S-6.878071527523289 15.687165739882868 -10.320706185117354 12.941756212807315 S-12.562530921416155 10.937084776198102 -14.473049020453804 6.969853065007719 S-16.553127500000002 4.403295000000003 -16.553127500000002 2.027173460875303e-15 S-16.383567119491453 -3.002621353817332 -14.473049020453805 -6.969853065007715 S-13.763340842711422 -10.196346685731758 -10.320706185117357 -12.941756212807311 S-7.867443112725822 -14.681292362094844 -3.5745479116551584 -15.661117677980014 S-0.6094778098727143 -17.1179313495397 3.6834173911979495 -16.13810603365453 S6.573026024514892 -15.304650777927971 10.015660682108956 -12.55924125085242 S13.003334444881753 -11.149364564980065 14.913852543919402 -7.182132853789682 S16.063872500000002 -4.403295000000004 16.063872500000002 -3.934514007807239e-15" fill="#000000" stroke-width="0">
    <animateTransform attributeName="transform" type="rotate" dur="16.666666666666664s" repeatCount="indefinite" values="0;51.42857142857143"></animateTransform>
  </path>
</g><g transform="translate(1070.328148669401,-1471.8346759675196) scale(100)" opacity="0.4">
  <path d="M19.276647 0 C19.276647 5.2839540000000005 20.18924477154846 3.857881371119153 17.89662305270328 8.618559424547612 S16.149954407643627 11.776598068532238 12.018792818530752 15.0710895010229 S9.571575110722339 18.189936861323233 4.420100869437543 19.365727240385436 S0.8620167472986111 19.969131592638217 -4.289457493986185 18.793341213576014 S-8.253685833027944 18.824598887859437 -12.384847422140822 15.530107455368777 S-15.075037105699383 13.124501731437721 -17.367658824544563 8.363823678009261 S-19.863753 5.283954000000003 -19.863753 2.4326081530503632e-15 S-19.660280543389742 -3.6031456245807982 -17.367658824544566 -8.363823678009258 S-16.5160090112537 -12.235616022878109 -12.384847422140826 -15.530107455368771 S-9.440931735270986 -17.61755083451381 -4.28945749398619 -18.793341213576014 S-0.7313733718472575 -20.54151761944764 4.4201008694375385 -19.365727240385436 S7.887631229417869 -18.365580933513563 12.018792818530747 -15.071089501022902 S15.6040013338581 -13.379237477976076 17.89662305270328 -8.618559424547616 S19.276647 -5.283954000000005 19.276647 -4.7214168093686856e-15" fill="#000000" stroke-width="0">
    <animateTransform attributeName="transform" type="rotate" dur="8.333333333333332s" repeatCount="indefinite" values="0;51.42857142857143"></animateTransform>
  </path>
</g><g transform="translate(996.6594081371613,-2251.1685463545273) scale(100)" opacity="0.4">
  <path d="M26.987305799999998 0 C26.987305799999998 7.3975356 28.26494268016784 5.401033919566814 25.055272273784592 12.065983194366657 S22.60993617070108 16.48723729594513 16.826309945943052 21.099525301432056 S13.400205155011275 25.465911605852522 6.18814121721256 27.112018136539607 S1.2068234462180554 27.9567842296935 -6.0052404915806585 26.310677699006416 S-11.555160166239123 26.354438443003215 -17.33878639099715 21.742150437516287 S-21.105051947979135 18.374302424012807 -24.314722354362384 11.709353149212966 S-27.809254199999998 7.397535600000004 -27.809254199999998 3.4056514142705085e-15 S-27.524392760745634 -5.044403874413115 -24.314722354362388 -11.709353149212959 S-23.12241261575518 -17.129862432029352 -17.338786390997157 -21.74215043751628 S-13.217304429379379 -24.66457116831933 -6.005240491580665 -26.310677699006416 S-1.0239227205861603 -28.758124667226692 6.188141217212554 -27.112018136539607 S11.042683721185018 -25.711813306918987 16.826309945943045 -21.09952530143206 S21.84560186740134 -18.730932469166504 25.05527227378459 -12.065983194366662 S26.987305799999994 -7.3975356000000065 26.987305799999998 -6.6099835331161595e-15" fill="#000000" stroke-width="0">
    <animateTransform attributeName="transform" type="rotate" dur="5.5555555555555545s" repeatCount="indefinite" values="0;51.42857142857143"></animateTransform>
  </path>
</g></g>
</svg>